<?xml version="1.0" encoding="UTF-8" standalone="no"?>
<!-- This is a Stata 17.0 generated SVG file (http://www.stata.com) -->

<svg version="1.1" width="6.00in" height="4.00in" viewBox="0 0 4320 2880" xmlns="http://www.w3.org/2000/svg" xmlns:xlink="http://www.w3.org/1999/xlink">
	<desc>Stata Graph - Graph</desc>
	
	
	
	
	<rect x="37.44" y="37.44" width="3558.65" height="2410.51" style="fill:none;stroke:#FFFFFF;stroke-opacity:0.00;stroke-width:5.76"/>
	<defs>
		<clipPath id="clipPath_qTuLaRqx">
			<path d="M1816.69 1242.69 L1443.98 2325.14 A1144.80 1144.80 0 1 0 1816.69 97.88 Z"/>
		</clipPath>
	</defs>
	<path d="M1816.69 1242.69 L1443.98 2325.14 A1144.80 1144.80 0 1 0 1816.69 97.88 Z" style="stroke:none;fill:#F28E31"/>
	<path d="M1816.69 1242.69 L1443.98 2325.14 A1144.80 1144.80 0 1 0 1816.69 97.88 Z" style="fill:none;stroke:#F0811A;stroke-width:6.00" clip-path="url(#clipPath_qTuLaRqx)"/>
	<defs>
		<clipPath id="clipPath_jrGBCEmV">
			<path d="M1816.69 1242.69 L734.27 1615.41 A1144.80 1144.80 0 0 0 1443.98 2325.14 Z"/>
		</clipPath>
	</defs>
	<path d="M1816.69 1242.69 L734.27 1615.41 A1144.80 1144.80 0 0 0 1443.98 2325.14 Z" style="stroke:none;fill:#2BB7D7"/>
	<path d="M1816.69 1242.69 L734.27 1615.41 A1144.80 1144.80 0 0 0 1443.98 2325.14 Z" style="fill:none;stroke:#13AFD3;stroke-width:6.00" clip-path="url(#clipPath_jrGBCEmV)"/>
	<defs>
		<clipPath id="clipPath_dOYbQZNu">
			<path d="M1816.69 1242.69 L727.93 888.93 A1144.80 1144.80 0 0 0 734.27 1615.41 Z"/>
		</clipPath>
	</defs>
	<path d="M1816.69 1242.69 L727.93 888.93 A1144.80 1144.80 0 0 0 734.27 1615.41 Z" style="stroke:none;fill:#E92B85"/>
	<path d="M1816.69 1242.69 L727.93 888.93 A1144.80 1144.80 0 0 0 734.27 1615.41 Z" style="fill:none;stroke:#E61477;stroke-width:6.00" clip-path="url(#clipPath_dOYbQZNu)"/>
	<defs>
		<clipPath id="clipPath_NEdSNESl">
			<path d="M1816.69 1242.69 L993.19 447.44 A1144.80 1144.80 0 0 0 727.93 888.93 Z"/>
		</clipPath>
	</defs>
	<path d="M1816.69 1242.69 L993.19 447.44 A1144.80 1144.80 0 0 0 727.93 888.93 Z" style="stroke:none;fill:#86388A"/>
	<path d="M1816.69 1242.69 L993.19 447.44 A1144.80 1144.80 0 0 0 727.93 888.93 Z" style="fill:none;stroke:#78227D;stroke-width:6.00" clip-path="url(#clipPath_NEdSNESl)"/>
	<defs>
		<clipPath id="clipPath_hvooKaJt">
			<path d="M1816.69 1242.69 L1816.69 97.88 A1144.80 1144.80 0 0 0 993.19 447.44 Z"/>
		</clipPath>
	</defs>
	<path d="M1816.69 1242.69 L1816.69 97.88 A1144.80 1144.80 0 0 0 993.19 447.44 Z" style="stroke:none;fill:#E22432"/>
	<path d="M1816.69 1242.69 L1816.69 97.88 A1144.80 1144.80 0 0 0 993.19 447.44 Z" style="fill:none;stroke:#DF0C1B;stroke-width:6.00" clip-path="url(#clipPath_hvooKaJt)"/>
	<text x="2569.32" y="1397.20" style="font-family:Work Sans;font-size:79.92px;fill:#000000" text-anchor="middle">55.30%</text>
	<text x="1278.18" y="1811.52" style="font-family:Work Sans;font-size:79.92px;fill:#000000" text-anchor="middle">14.33%</text>
	<text x="1053.67" y="1282.45" style="font-family:Work Sans;font-size:79.92px;fill:#000000" text-anchor="middle">10.24%</text>
	<text x="1160.60" y="880.95" style="font-family:Work Sans;font-size:79.92px;fill:#000000" text-anchor="middle">7.31%</text>
	<text x="1517.67" y="568.55" style="font-family:Work Sans;font-size:79.92px;fill:#000000" text-anchor="middle">12.82%</text>
	
	<rect x="3636.40" y="1772.89" width="611.60" height="640.50" style="fill:none;stroke:#FFFFFF;stroke-opacity:0.00;stroke-width:5.76"/>
	<rect x="3676.72" y="1823.20" width="122.58" height="60.08" style="fill:#F28E31"/>
	<rect x="3678.22" y="1824.70" width="119.58" height="57.08" style="fill:none;stroke:#F28E31;stroke-width:3.00"/>
	<rect x="3676.72" y="1943.22" width="122.58" height="59.94" style="fill:#2BB7D7"/>
	<rect x="3678.22" y="1944.72" width="119.58" height="56.94" style="fill:none;stroke:#2BB7D7;stroke-width:3.00"/>
	<rect x="3676.72" y="2063.24" width="122.58" height="59.94" style="fill:#E92B85"/>
	<rect x="3678.22" y="2064.74" width="119.58" height="56.94" style="fill:none;stroke:#E92B85;stroke-width:3.00"/>
	<rect x="3676.72" y="2183.12" width="122.58" height="60.08" style="fill:#86388A"/>
	<rect x="3678.22" y="2184.62" width="119.58" height="57.08" style="fill:none;stroke:#86388A;stroke-width:3.00"/>
	<rect x="3676.72" y="2303.14" width="122.58" height="59.94" style="fill:#E22432"/>
	<rect x="3678.22" y="2304.64" width="119.58" height="56.94" style="fill:none;stroke:#E22432;stroke-width:3.00"/>
	<text x="3850.34" y="1881.18" style="font-family:Work Sans;font-size:79.92px;fill:#000000">Venezuela</text>
	<text x="3850.34" y="2001.20" style="font-family:Work Sans;font-size:79.92px;fill:#000000">Bolivia</text>
	<text x="3850.34" y="2121.21" style="font-family:Work Sans;font-size:79.92px;fill:#000000">Colombia</text>
	<text x="3850.34" y="2241.23" style="font-family:Work Sans;font-size:79.92px;fill:#000000">Perú</text>
	<text x="3850.34" y="2361.11" style="font-family:Work Sans;font-size:79.92px;fill:#000000">Otro</text>
	<text x="51.84" y="2510.13" style="font-family:Work Sans;font-style:italic;font-size:59.94px;fill:#000000">Notas:</text>
	<text x="51.84" y="2570.08" style="fill:#000000">
		<tspan style="font-family:Work Sans;font-style:italic;font-size:59.94px">i)</tspan>
		<tspan style="font-family:Work Sans;font-size:59.94px"> Se consideran las cuatro nacionalidades con mayor número de estudiantes  y categoriza estudiantes de otros países en ″Otro″.</tspan>
	</text>
	<text x="51.84" y="2630.15" style="fill:#000000">
		<tspan style="font-family:Work Sans;font-style:italic;font-size:59.94px">ii)</tspan>
		<tspan style="font-family:Work Sans;font-size:59.94px"> Se identifica migrante con la variable que indica si el estudiante es migrante o chileno.</tspan>
	</text>
	<text x="51.84" y="2690.09" style="fill:#000000">
		<tspan style="font-family:Work Sans;font-style:italic;font-size:59.94px">iii)</tspan>
		<tspan style="font-family:Work Sans;font-size:59.94px"> Se considera el universo de estudiantes en educación básica y media. </tspan>
	</text>
	<text x="51.84" y="2750.17" style="font-family:Work Sans;font-size:59.94px;fill:#000000"> </text>
	<text x="51.84" y="2810.11" style="fill:#000000">
		<tspan style="font-family:Work Sans;font-style:italic;font-size:59.94px">Fuente:</tspan>
		<tspan style="font-family:Work Sans;font-size:59.94px"> Elaborado por Núcleo Milenio MIGRA (datamigra.cl), con datos del Ministerio de Educación.</tspan>
	</text>
</svg>
