<?xml version="1.0" encoding="UTF-8" standalone="no"?>
<!-- This is a Stata 17.0 generated SVG file (http://www.stata.com) -->

<svg version="1.1" width="6.00in" height="4.00in" viewBox="0 0 4320 2880" xmlns="http://www.w3.org/2000/svg" xmlns:xlink="http://www.w3.org/1999/xlink">
	<desc>Stata Graph - Graph</desc>
	
	
	
	
	
	<defs>
		<clipPath id="clipPath_dQIJxxnG">
			<path d="M1818.86 1342.73 L1413.58 2519.76 A1244.84 1244.84 0 1 0 1818.86 97.88 Z"/>
		</clipPath>
	</defs>
	<path d="M1818.86 1342.73 L1413.58 2519.76 A1244.84 1244.84 0 1 0 1818.86 97.88 Z" style="stroke:none;fill:#F28E31"/>
	<path d="M1818.86 1342.73 L1413.58 2519.76 A1244.84 1244.84 0 1 0 1818.86 97.88 Z" style="fill:none;stroke:#F0811A;stroke-width:6.00" clip-path="url(#clipPath_dQIJxxnG)"/>
	<defs>
		<clipPath id="clipPath_pDKFRuim">
			<path d="M1818.86 1342.73 L641.84 1748.02 A1244.84 1244.84 0 0 0 1413.58 2519.76 Z"/>
		</clipPath>
	</defs>
	<path d="M1818.86 1342.73 L641.84 1748.02 A1244.84 1244.84 0 0 0 1413.58 2519.76 Z" style="stroke:none;fill:#2BB7D7"/>
	<path d="M1818.86 1342.73 L641.84 1748.02 A1244.84 1244.84 0 0 0 1413.58 2519.76 Z" style="fill:none;stroke:#13AFD3;stroke-width:6.00" clip-path="url(#clipPath_pDKFRuim)"/>
	<defs>
		<clipPath id="clipPath_CHPpPpdI">
			<path d="M1818.86 1342.73 L634.95 958.05 A1244.84 1244.84 0 0 0 641.84 1748.02 Z"/>
		</clipPath>
	</defs>
	<path d="M1818.86 1342.73 L634.95 958.05 A1244.84 1244.84 0 0 0 641.84 1748.02 Z" style="stroke:none;fill:#E92B85"/>
	<path d="M1818.86 1342.73 L634.95 958.05 A1244.84 1244.84 0 0 0 641.84 1748.02 Z" style="fill:none;stroke:#E61477;stroke-width:6.00" clip-path="url(#clipPath_CHPpPpdI)"/>
	<defs>
		<clipPath id="clipPath_sCBIVRSx">
			<path d="M1818.86 1342.73 L923.40 477.98 A1244.84 1244.84 0 0 0 634.95 958.05 Z"/>
		</clipPath>
	</defs>
	<path d="M1818.86 1342.73 L923.40 477.98 A1244.84 1244.84 0 0 0 634.95 958.05 Z" style="stroke:none;fill:#86388A"/>
	<path d="M1818.86 1342.73 L923.40 477.98 A1244.84 1244.84 0 0 0 634.95 958.05 Z" style="fill:none;stroke:#78227D;stroke-width:6.00" clip-path="url(#clipPath_sCBIVRSx)"/>
	<defs>
		<clipPath id="clipPath_trlatHzJ">
			<path d="M1818.86 1342.73 L1818.85 97.88 A1244.84 1244.84 0 0 0 923.40 477.98 Z"/>
		</clipPath>
	</defs>
	<path d="M1818.86 1342.73 L1818.85 97.88 A1244.84 1244.84 0 0 0 923.40 477.98 Z" style="stroke:none;fill:#E22432"/>
	<path d="M1818.86 1342.73 L1818.85 97.88 A1244.84 1244.84 0 0 0 923.40 477.98 Z" style="fill:none;stroke:#DF0C1B;stroke-width:6.00" clip-path="url(#clipPath_trlatHzJ)"/>
	<text x="2637.22" y="1508.30" style="font-family:Work Sans;font-size:79.92px;fill:#000000" text-anchor="middle">55.30%</text>
	<text x="1233.22" y="1958.81" style="font-family:Work Sans;font-size:79.92px;fill:#000000" text-anchor="middle">14.33%</text>
	<text x="989.14" y="1383.56" style="font-family:Work Sans;font-size:79.92px;fill:#000000" text-anchor="middle">10.24%</text>
	<text x="1105.38" y="946.97" style="font-family:Work Sans;font-size:79.92px;fill:#000000" text-anchor="middle">7.31%</text>
	<text x="1493.64" y="607.17" style="font-family:Work Sans;font-size:79.92px;fill:#000000" text-anchor="middle">12.82%</text>
	
	
	<rect x="3680.91" y="2023.28" width="121.64" height="59.94" style="fill:#F28E31"/>
	<rect x="3682.41" y="2024.78" width="118.64" height="56.94" style="fill:none;stroke:#F28E31;stroke-width:3.00"/>
	<rect x="3680.91" y="2143.29" width="121.64" height="59.94" style="fill:#2BB7D7"/>
	<rect x="3682.41" y="2144.79" width="118.64" height="56.94" style="fill:none;stroke:#2BB7D7;stroke-width:3.00"/>
	<rect x="3680.91" y="2263.18" width="121.64" height="60.08" style="fill:#E92B85"/>
	<rect x="3682.41" y="2264.68" width="118.64" height="57.08" style="fill:none;stroke:#E92B85;stroke-width:3.00"/>
	<rect x="3680.91" y="2383.19" width="121.64" height="59.94" style="fill:#86388A"/>
	<rect x="3682.41" y="2384.69" width="118.64" height="56.94" style="fill:none;stroke:#86388A;stroke-width:3.00"/>
	<rect x="3680.91" y="2503.21" width="121.64" height="59.94" style="fill:#E22432"/>
	<rect x="3682.41" y="2504.71" width="118.64" height="56.94" style="fill:none;stroke:#E22432;stroke-width:3.00"/>
	<text x="3853.17" y="2081.25" style="font-family:Work Sans;font-size:79.92px;fill:#000000">Venezuela</text>
	<text x="3853.17" y="2201.27" style="font-family:Work Sans;font-size:79.92px;fill:#000000">Bolivia</text>
	<text x="3853.17" y="2321.29" style="font-family:Work Sans;font-size:79.92px;fill:#000000">Colombia</text>
	<text x="3853.17" y="2441.17" style="font-family:Work Sans;font-size:79.92px;fill:#000000">Perú</text>
	<text x="3853.17" y="2561.19" style="font-family:Work Sans;font-size:79.92px;fill:#000000">Otro</text>
	<text x="51.84" y="2724.19" style="fill:#000000">
		<tspan style="font-family:Work Sans;font-style:italic;font-size:79.92px">Nota:</tspan>
		<tspan style="font-family:Work Sans;font-size:79.92px"> Se consideran las 4 nacionalidades con más estudiantes, el resto se categoriza como Otro. </tspan>
	</text>
	<text x="51.84" y="2804.12" style="fill:#000000">
		<tspan style="font-family:Work Sans;font-style:italic;font-size:79.92px">Fuente:</tspan>
		<tspan style="font-family:Work Sans;font-size:79.92px"> Elaborado por Núcleo Milenio MIGRA (datamigra.cl), con datos del MINEDUC</tspan>
	</text>
</svg>
